<svg width="135" height="28" viewBox="0 0 135 28" fill="none" xmlns="http://www.w3.org/2000/svg">
<path d="M28 12.4964V27.3974H22.3276L22.3151 13.9455C22.3151 8.90587 17.8506 5.81545 14.2448 5.81545C10.3594 5.81545 6.18112 9.25852 6.18112 13.9134C6.18112 19.2352 10.69 22.0948 14.2448 22.0948C18.2386 22.0948 20.4962 19.0941 20.4962 19.0941V25.8776C18.55 27.4101 16.7316 28 14.4928 28C3.6121 28 0 19.4211 0 13.8173C0 7.70691 4.19604 0 14.4928 0C24.7378 0 27.786 8.19631 28 12.4964Z" fill="#0ad1f7"/>
<path d="M36.9204 22.1718C36.1219 22.1718 35.6064 21.7069 35.6064 20.969C35.6064 20.7669 35.657 20.4839 35.7783 20.1706L40.0133 8.6582C40.367 7.68789 40.9533 7.24316 41.9034 7.24316C42.8636 7.24316 43.4498 7.66768 43.8137 8.6481L48.0588 20.1706C48.1801 20.5041 48.2306 20.7366 48.2306 20.969C48.2306 21.6766 47.6848 22.1718 46.9268 22.1718C46.2192 22.1718 45.825 21.8484 45.5926 21.0701L44.6324 18.2805H39.1845L38.2243 21.0499C37.9817 21.8383 37.5976 22.1718 36.9204 22.1718ZM39.801 16.2186H43.9956L41.9236 9.99238H41.8528L39.801 16.2186ZM51.4347 22.2021C50.6261 22.2021 50.1308 21.6968 50.1308 20.8478V8.76938C50.1308 7.92036 50.6261 7.41499 51.4347 7.41499H55.9224C59.0759 7.41499 60.966 9.16357 60.966 11.9532C60.966 13.8534 59.9957 15.41 58.3077 16.0669L60.6122 20.1099C60.8346 20.4839 60.8952 20.7062 60.8952 21.0095C60.8952 21.6968 60.3292 22.2021 59.5813 22.2021C58.9647 22.2021 58.6615 21.9798 58.2572 21.2622L55.6596 16.5117H52.7385V20.8478C52.7385 21.6968 52.2433 22.2021 51.4347 22.2021ZM52.7385 14.5104H55.6798C57.3374 14.5104 58.2976 13.5906 58.2976 12.0139C58.2976 10.4775 57.2768 9.52744 55.6292 9.52744H52.7385V14.5104ZM64.3722 22C63.5636 22 63.0683 21.4946 63.0683 20.6456V8.76938C63.0683 7.92036 63.5636 7.41499 64.3722 7.41499H71.4777C72.1953 7.41499 72.6704 7.8395 72.6704 8.5167C72.6704 9.1939 72.1953 9.61841 71.4777 9.61841H65.676V13.5603H71.1745C71.8416 13.5603 72.2964 13.9545 72.2964 14.5913C72.2964 15.228 71.8517 15.6323 71.1745 15.6323H65.676V19.7966H71.4777C72.1953 19.7966 72.6704 20.2211 72.6704 20.8983C72.6704 21.5755 72.1953 22 71.4777 22H64.3722ZM76.0361 22.1718C75.2478 22.1718 74.7727 21.6867 74.7727 20.8579V8.58745C74.7727 7.74853 75.2882 7.24316 76.1271 7.24316C76.7032 7.24316 77.057 7.44531 77.4815 8.02144L84.2737 17.6336H84.3646V8.55713C84.3646 7.72832 84.8397 7.24316 85.618 7.24316C86.4063 7.24316 86.8713 7.72832 86.8713 8.55713V20.868C86.8713 21.6968 86.3962 22.1718 85.5472 22.1718C84.9509 22.1718 84.6072 21.9798 84.1928 21.3936L77.3804 11.7713H77.2895V20.8579C77.2895 21.6867 76.8144 22.1718 76.0361 22.1718ZM90.7525 22C89.9439 22 89.4487 21.4946 89.4487 20.6456V8.76938C89.4487 7.92036 89.9439 7.41499 90.7525 7.41499H94.7753C99.1316 7.41499 101.709 10.053 101.709 14.6721C101.709 19.2912 99.1417 22 94.7753 22H90.7525ZM92.0564 19.7966H94.5024C97.4335 19.7966 99.0507 18.0076 99.0507 14.6822C99.0507 11.4175 97.4133 9.61841 94.5024 9.61841H92.0564V19.7966ZM109.775 22.2426C106.086 22.2426 103.781 20.0392 103.781 16.8553V8.59756C103.781 7.73843 104.276 7.24316 105.085 7.24316C105.904 7.24316 106.389 7.73843 106.389 8.59756V16.6229C106.389 18.614 107.612 19.9684 109.775 19.9684C111.938 19.9684 113.171 18.614 113.171 16.6229V8.59756C113.171 7.73843 113.656 7.24316 114.475 7.24316C115.283 7.24316 115.768 7.73843 115.768 8.59756V16.8553C115.768 20.0392 113.474 22.2426 109.775 22.2426ZM119.528 22.1718C118.791 22.1718 118.356 21.717 118.356 20.9488V8.90078C118.356 7.86982 118.993 7.24316 120.034 7.24316C120.933 7.24316 121.449 7.62725 121.833 8.59756L125.846 18.422H125.926L129.929 8.59756C130.313 7.63735 130.839 7.24316 131.748 7.24316C132.789 7.24316 133.406 7.85972 133.406 8.90078V20.9488C133.406 21.717 132.971 22.1718 132.233 22.1718C131.496 22.1718 131.061 21.717 131.061 20.9488V11.65H130.99L127.119 21.0297C126.866 21.6361 126.492 21.909 125.886 21.909C125.29 21.909 124.895 21.6361 124.653 21.0398L120.782 11.65H120.711V20.9488C120.711 21.717 120.266 22.1718 119.528 22.1718Z" fill="#4E4E4E"/>
</svg>
