<svg width="2261" height="540" viewBox="0 0 2261 540" fill="none" xmlns="http://www.w3.org/2000/svg">
<g clip-path="url(#clip0_513_6087)">
<path d="M424.039 0H115.714C51.8071 0 0 51.8071 0 115.714V424.039C0 487.946 51.8071 539.753 115.714 539.753H424.039C487.946 539.753 539.753 487.946 539.753 424.039V115.714C539.753 51.8071 487.946 0 424.039 0Z" fill="#20AAF2"/>
<path d="M432 252.709V424.069H366.361L366.214 269.373C366.214 211.418 314.557 175.877 272.833 175.877C227.872 175.877 179.526 215.473 179.526 269.005C179.526 330.204 231.698 363.09 272.833 363.09C319.045 363.09 345.168 328.582 345.168 328.582V406.594C322.651 424.216 301.605 431 275.703 431C149.797 431 108 332.343 108 267.899C108 197.629 156.553 109 275.703 109C394.25 109 429.523 203.258 432 252.709Z" fill="white"/>
</g>
<path d="M827.564 260.432L811.501 220.714H725.056L708.993 260.432H650L740.242 56H797.191L887.725 260.432H827.564ZM741.994 178.075H794.563L768.279 112.657L741.994 178.075ZM1030.57 260.432L993.485 206.111H961.944V260.432H904.119V56H997.573C1053.35 56 1088.4 84.9124 1088.4 131.64C1088.4 161.72 1073.8 183.916 1048.39 196.182L1092.49 260.432H1030.57ZM1029.99 131.64C1029.99 112.657 1018.02 101.559 994.069 101.559H961.944V161.429H994.069C1018.02 161.429 1029.99 150.331 1029.99 131.64ZM1177.54 215.749H1284.43V260.432H1120.3V56H1280.63V100.683H1177.54V135.144H1268.37V178.367H1177.54V215.749ZM1454.37 56H1511.02V260.432H1463.42L1373.18 151.499V260.432H1316.52V56H1364.12L1454.37 164.933V56ZM1551.81 260.432V56H1648.48C1716.23 56 1762.67 95.4261 1762.67 158.216C1762.67 221.006 1716.23 260.432 1648.48 260.432H1551.81ZM1609.64 214.289H1646.14C1680.89 214.289 1704.26 193.553 1704.26 158.216C1704.26 122.878 1680.89 102.143 1646.14 102.143H1609.64V214.289ZM1887.42 264.521C1826.97 264.521 1791.34 230.351 1791.34 169.314V56H1849.16V167.561C1849.16 202.607 1863.77 216.625 1888 216.625C1911.95 216.625 1926.55 202.607 1926.55 167.561V56H1983.5V169.314C1983.5 230.351 1947.87 264.521 1887.42 264.521ZM2260.41 260.432H2207.25L2206.67 152.083L2154.1 240.281H2128.4L2076.12 155.003V260.432H2022.68V56H2070.28L2142.13 173.986L2212.22 56H2259.82L2260.41 260.432Z" fill="#20AAF2"/>
<mask id="path-4-outside-1_513_6087" maskUnits="userSpaceOnUse" x="650.144" y="355.2" width="1610" height="130" fill="black">
<rect fill="white" x="650.144" y="355.2" width="1610" height="130"/>
<path d="M742.918 456.267L730.91 429.535H675.159L663.151 456.267H652.144L697.888 356.2H708.324L754.069 456.267H742.918ZM679.019 420.958H727.051L703.035 367.208L679.019 420.958Z"/>
<path d="M812.822 380.502C834.265 380.502 850.275 395.941 850.275 418.67C850.275 441.543 834.265 456.982 812.822 456.982C800.814 456.982 790.521 451.835 784.231 442.115V484H774.082V381.074H783.803V395.941C789.95 385.934 800.385 380.502 812.822 380.502ZM812.107 447.976C827.975 447.976 840.126 436.254 840.126 418.67C840.126 401.23 827.975 389.365 812.107 389.365C796.096 389.365 784.088 401.23 784.088 418.67C784.088 436.254 796.096 447.976 812.107 447.976Z"/>
<path d="M941.251 418.67C941.251 419.528 941.108 420.672 941.108 421.815H878.209C879.353 437.54 891.361 447.976 907.8 447.976C916.949 447.976 925.097 444.688 930.816 438.112L936.534 444.688C929.815 452.693 919.379 456.982 907.514 456.982C884.07 456.982 868.059 440.971 868.059 418.67C868.059 396.37 883.641 380.502 904.798 380.502C925.955 380.502 941.251 396.084 941.251 418.67ZM904.798 389.222C890.217 389.222 879.496 399.515 878.209 414.239H931.53C930.244 399.515 919.522 389.222 904.798 389.222Z"/>
<path d="M966.986 456.267V381.074H977.135V414.382H1024.45V381.074H1034.6V456.267H1024.45V423.102H977.135V456.267H966.986Z"/>
<path d="M1128.33 447.404H1140.05V474.422H1130.47V456.267H1063.14V474.422H1053.57V447.404H1057.86C1069.01 446.689 1070.86 426.533 1071.86 406.234L1072.87 381.074H1128.33V447.404ZM1081.16 406.805C1080.44 423.96 1078.87 441.686 1071.29 447.404H1118.18V390.08H1082.01L1081.16 406.805Z"/>
<path d="M1188.97 380.502C1208.42 380.502 1219.42 390.223 1219.42 409.664V456.267H1209.7V444.545C1205.13 452.264 1196.27 456.982 1183.83 456.982C1166.82 456.982 1156.38 448.119 1156.38 435.11C1156.38 423.531 1163.82 413.81 1185.4 413.81H1209.27V409.236C1209.27 396.37 1201.98 389.365 1187.97 389.365C1178.25 389.365 1169.1 392.796 1162.96 398.228L1158.38 390.652C1165.96 384.219 1177.11 380.502 1188.97 380.502ZM1185.4 448.976C1196.84 448.976 1205.27 443.544 1209.27 433.68V421.387H1185.69C1171.11 421.387 1166.39 427.105 1166.39 434.824C1166.39 443.544 1173.39 448.976 1185.4 448.976Z"/>
<path d="M1321.84 456.982C1299.4 456.982 1283.1 441.114 1283.1 418.67C1283.1 396.227 1299.4 380.502 1321.84 380.502C1334.56 380.502 1345.28 385.505 1351.29 395.369L1343.71 400.515C1338.57 392.939 1330.56 389.365 1321.84 389.365C1305.4 389.365 1293.39 401.087 1293.39 418.67C1293.39 436.397 1305.4 447.976 1321.84 447.976C1330.56 447.976 1338.57 444.545 1343.71 436.968L1351.29 442.115C1345.28 451.835 1334.56 456.982 1321.84 456.982Z"/>
<path d="M1374.21 381.074H1441.68V456.267H1431.53V390.08H1384.36V456.267H1374.21V381.074Z"/>
<path d="M1539.7 418.67C1539.7 419.528 1539.56 420.672 1539.56 421.815H1476.66C1477.8 437.54 1489.81 447.976 1506.25 447.976C1515.4 447.976 1523.55 444.688 1529.27 438.112L1534.99 444.688C1528.27 452.693 1517.83 456.982 1505.97 456.982C1482.52 456.982 1466.51 440.971 1466.51 418.67C1466.51 396.37 1482.09 380.502 1503.25 380.502C1524.41 380.502 1539.7 396.084 1539.7 418.67ZM1503.25 389.222C1488.67 389.222 1477.95 399.515 1476.66 414.239H1529.98C1528.7 399.515 1517.97 389.222 1503.25 389.222Z"/>
<path d="M1631.62 447.404H1643.78V475.137H1634.2V456.267H1565.44V381.074H1575.59V447.404H1621.47V381.074H1631.62V447.404Z"/>
<path d="M1719.32 381.074V390.08H1690.87V456.267H1680.72V390.08H1652.27V381.074H1719.32Z"/>
<path d="M1799.67 418.67C1799.67 419.528 1799.53 420.672 1799.53 421.815H1736.63C1737.77 437.54 1749.78 447.976 1766.22 447.976C1775.37 447.976 1783.52 444.688 1789.24 438.112L1794.96 444.688C1788.24 452.693 1777.8 456.982 1765.94 456.982C1742.49 456.982 1726.48 440.971 1726.48 418.67C1726.48 396.37 1742.06 380.502 1763.22 380.502C1784.38 380.502 1799.67 396.084 1799.67 418.67ZM1763.22 389.222C1748.64 389.222 1737.92 399.515 1736.63 414.239H1789.95C1788.67 399.515 1777.94 389.222 1763.22 389.222Z"/>
<path d="M1881.92 456.267H1870.34L1846.47 424.817L1822.46 456.267H1811.02L1840.75 417.67L1812.45 381.074H1823.88L1846.47 410.522L1869.06 381.074H1880.21L1851.9 417.67L1881.92 456.267Z"/>
<path d="M1901.83 456.267V381.074H1911.98V414.382H1959.29V381.074H1969.44V456.267H1959.29V423.102H1911.98V456.267H1901.83Z"/>
<path d="M2001.56 456.267V381.074H2011.71V440.828L2061.88 381.074H2070.89V456.267H2060.74V396.513L2010.71 456.267H2001.56Z"/>
<path d="M2158.28 456.267L2130.55 422.816H2113.4V456.267H2103.25V381.074H2113.4V414.096H2130.69L2157.14 381.074H2168.15L2138.55 417.527L2170.29 456.267H2158.28Z"/>
<path d="M2189.58 456.267V381.074H2199.73V440.828L2249.9 381.074H2258.91V456.267H2248.76V396.513L2198.73 456.267H2189.58Z"/>
</mask>
<path d="M742.918 456.267L730.91 429.535H675.159L663.151 456.267H652.144L697.888 356.2H708.324L754.069 456.267H742.918ZM679.019 420.958H727.051L703.035 367.208L679.019 420.958Z" fill="#292929"/>
<path d="M812.822 380.502C834.265 380.502 850.275 395.941 850.275 418.67C850.275 441.543 834.265 456.982 812.822 456.982C800.814 456.982 790.521 451.835 784.231 442.115V484H774.082V381.074H783.803V395.941C789.95 385.934 800.385 380.502 812.822 380.502ZM812.107 447.976C827.975 447.976 840.126 436.254 840.126 418.67C840.126 401.23 827.975 389.365 812.107 389.365C796.096 389.365 784.088 401.23 784.088 418.67C784.088 436.254 796.096 447.976 812.107 447.976Z" fill="#292929"/>
<path d="M941.251 418.67C941.251 419.528 941.108 420.672 941.108 421.815H878.209C879.353 437.54 891.361 447.976 907.8 447.976C916.949 447.976 925.097 444.688 930.816 438.112L936.534 444.688C929.815 452.693 919.379 456.982 907.514 456.982C884.07 456.982 868.059 440.971 868.059 418.67C868.059 396.37 883.641 380.502 904.798 380.502C925.955 380.502 941.251 396.084 941.251 418.67ZM904.798 389.222C890.217 389.222 879.496 399.515 878.209 414.239H931.53C930.244 399.515 919.522 389.222 904.798 389.222Z" fill="#292929"/>
<path d="M966.986 456.267V381.074H977.135V414.382H1024.45V381.074H1034.6V456.267H1024.45V423.102H977.135V456.267H966.986Z" fill="#292929"/>
<path d="M1128.33 447.404H1140.05V474.422H1130.47V456.267H1063.14V474.422H1053.57V447.404H1057.86C1069.01 446.689 1070.86 426.533 1071.86 406.234L1072.87 381.074H1128.33V447.404ZM1081.16 406.805C1080.44 423.96 1078.87 441.686 1071.29 447.404H1118.18V390.08H1082.01L1081.16 406.805Z" fill="#292929"/>
<path d="M1188.97 380.502C1208.42 380.502 1219.42 390.223 1219.42 409.664V456.267H1209.7V444.545C1205.13 452.264 1196.27 456.982 1183.83 456.982C1166.82 456.982 1156.38 448.119 1156.38 435.11C1156.38 423.531 1163.82 413.81 1185.4 413.81H1209.27V409.236C1209.27 396.37 1201.98 389.365 1187.97 389.365C1178.25 389.365 1169.1 392.796 1162.96 398.228L1158.38 390.652C1165.96 384.219 1177.11 380.502 1188.97 380.502ZM1185.4 448.976C1196.84 448.976 1205.27 443.544 1209.27 433.68V421.387H1185.69C1171.11 421.387 1166.39 427.105 1166.39 434.824C1166.39 443.544 1173.39 448.976 1185.4 448.976Z" fill="#292929"/>
<path d="M1321.84 456.982C1299.4 456.982 1283.1 441.114 1283.1 418.67C1283.1 396.227 1299.4 380.502 1321.84 380.502C1334.56 380.502 1345.28 385.505 1351.29 395.369L1343.71 400.515C1338.57 392.939 1330.56 389.365 1321.84 389.365C1305.4 389.365 1293.39 401.087 1293.39 418.67C1293.39 436.397 1305.4 447.976 1321.84 447.976C1330.56 447.976 1338.57 444.545 1343.71 436.968L1351.29 442.115C1345.28 451.835 1334.56 456.982 1321.84 456.982Z" fill="#292929"/>
<path d="M1374.21 381.074H1441.68V456.267H1431.53V390.08H1384.36V456.267H1374.21V381.074Z" fill="#292929"/>
<path d="M1539.7 418.67C1539.7 419.528 1539.56 420.672 1539.56 421.815H1476.66C1477.8 437.54 1489.81 447.976 1506.25 447.976C1515.4 447.976 1523.55 444.688 1529.27 438.112L1534.99 444.688C1528.27 452.693 1517.83 456.982 1505.97 456.982C1482.52 456.982 1466.51 440.971 1466.51 418.67C1466.51 396.37 1482.09 380.502 1503.25 380.502C1524.41 380.502 1539.7 396.084 1539.7 418.67ZM1503.25 389.222C1488.67 389.222 1477.95 399.515 1476.66 414.239H1529.98C1528.7 399.515 1517.97 389.222 1503.25 389.222Z" fill="#292929"/>
<path d="M1631.62 447.404H1643.78V475.137H1634.2V456.267H1565.44V381.074H1575.59V447.404H1621.47V381.074H1631.62V447.404Z" fill="#292929"/>
<path d="M1719.32 381.074V390.08H1690.87V456.267H1680.72V390.08H1652.27V381.074H1719.32Z" fill="#292929"/>
<path d="M1799.67 418.67C1799.67 419.528 1799.53 420.672 1799.53 421.815H1736.63C1737.77 437.54 1749.78 447.976 1766.22 447.976C1775.37 447.976 1783.52 444.688 1789.24 438.112L1794.96 444.688C1788.24 452.693 1777.8 456.982 1765.94 456.982C1742.49 456.982 1726.48 440.971 1726.48 418.67C1726.48 396.37 1742.06 380.502 1763.22 380.502C1784.38 380.502 1799.67 396.084 1799.67 418.67ZM1763.22 389.222C1748.64 389.222 1737.92 399.515 1736.63 414.239H1789.95C1788.67 399.515 1777.94 389.222 1763.22 389.222Z" fill="#292929"/>
<path d="M1881.92 456.267H1870.34L1846.47 424.817L1822.46 456.267H1811.02L1840.75 417.67L1812.45 381.074H1823.88L1846.47 410.522L1869.06 381.074H1880.21L1851.9 417.67L1881.92 456.267Z" fill="#292929"/>
<path d="M1901.83 456.267V381.074H1911.98V414.382H1959.29V381.074H1969.44V456.267H1959.29V423.102H1911.98V456.267H1901.83Z" fill="#292929"/>
<path d="M2001.56 456.267V381.074H2011.71V440.828L2061.88 381.074H2070.89V456.267H2060.74V396.513L2010.71 456.267H2001.56Z" fill="#292929"/>
<path d="M2158.28 456.267L2130.55 422.816H2113.4V456.267H2103.25V381.074H2113.4V414.096H2130.69L2157.14 381.074H2168.15L2138.55 417.527L2170.29 456.267H2158.28Z" fill="#292929"/>
<path d="M2189.58 456.267V381.074H2199.73V440.828L2249.9 381.074H2258.91V456.267H2248.76V396.513L2198.73 456.267H2189.58Z" fill="#292929"/>
<path d="M742.918 456.267L730.91 429.535H675.159L663.151 456.267H652.144L697.888 356.2H708.324L754.069 456.267H742.918ZM679.019 420.958H727.051L703.035 367.208L679.019 420.958Z" stroke="#292929" stroke-width="2" mask="url(#path-4-outside-1_513_6087)"/>
<path d="M812.822 380.502C834.265 380.502 850.275 395.941 850.275 418.67C850.275 441.543 834.265 456.982 812.822 456.982C800.814 456.982 790.521 451.835 784.231 442.115V484H774.082V381.074H783.803V395.941C789.95 385.934 800.385 380.502 812.822 380.502ZM812.107 447.976C827.975 447.976 840.126 436.254 840.126 418.67C840.126 401.23 827.975 389.365 812.107 389.365C796.096 389.365 784.088 401.23 784.088 418.67C784.088 436.254 796.096 447.976 812.107 447.976Z" stroke="#292929" stroke-width="2" mask="url(#path-4-outside-1_513_6087)"/>
<path d="M941.251 418.67C941.251 419.528 941.108 420.672 941.108 421.815H878.209C879.353 437.54 891.361 447.976 907.8 447.976C916.949 447.976 925.097 444.688 930.816 438.112L936.534 444.688C929.815 452.693 919.379 456.982 907.514 456.982C884.07 456.982 868.059 440.971 868.059 418.67C868.059 396.37 883.641 380.502 904.798 380.502C925.955 380.502 941.251 396.084 941.251 418.67ZM904.798 389.222C890.217 389.222 879.496 399.515 878.209 414.239H931.53C930.244 399.515 919.522 389.222 904.798 389.222Z" stroke="#292929" stroke-width="2" mask="url(#path-4-outside-1_513_6087)"/>
<path d="M966.986 456.267V381.074H977.135V414.382H1024.45V381.074H1034.6V456.267H1024.45V423.102H977.135V456.267H966.986Z" stroke="#292929" stroke-width="2" mask="url(#path-4-outside-1_513_6087)"/>
<path d="M1128.33 447.404H1140.05V474.422H1130.47V456.267H1063.14V474.422H1053.57V447.404H1057.86C1069.01 446.689 1070.86 426.533 1071.86 406.234L1072.87 381.074H1128.33V447.404ZM1081.16 406.805C1080.44 423.96 1078.87 441.686 1071.29 447.404H1118.18V390.08H1082.01L1081.16 406.805Z" stroke="#292929" stroke-width="2" mask="url(#path-4-outside-1_513_6087)"/>
<path d="M1188.97 380.502C1208.42 380.502 1219.42 390.223 1219.42 409.664V456.267H1209.7V444.545C1205.13 452.264 1196.27 456.982 1183.83 456.982C1166.82 456.982 1156.38 448.119 1156.38 435.11C1156.38 423.531 1163.82 413.81 1185.4 413.81H1209.27V409.236C1209.27 396.37 1201.98 389.365 1187.97 389.365C1178.25 389.365 1169.1 392.796 1162.96 398.228L1158.38 390.652C1165.96 384.219 1177.11 380.502 1188.97 380.502ZM1185.4 448.976C1196.84 448.976 1205.27 443.544 1209.27 433.68V421.387H1185.69C1171.11 421.387 1166.39 427.105 1166.39 434.824C1166.39 443.544 1173.39 448.976 1185.4 448.976Z" stroke="#292929" stroke-width="2" mask="url(#path-4-outside-1_513_6087)"/>
<path d="M1321.84 456.982C1299.4 456.982 1283.1 441.114 1283.1 418.67C1283.1 396.227 1299.4 380.502 1321.84 380.502C1334.56 380.502 1345.28 385.505 1351.29 395.369L1343.71 400.515C1338.57 392.939 1330.56 389.365 1321.84 389.365C1305.4 389.365 1293.39 401.087 1293.39 418.67C1293.39 436.397 1305.4 447.976 1321.84 447.976C1330.56 447.976 1338.57 444.545 1343.71 436.968L1351.29 442.115C1345.28 451.835 1334.56 456.982 1321.84 456.982Z" stroke="#292929" stroke-width="2" mask="url(#path-4-outside-1_513_6087)"/>
<path d="M1374.21 381.074H1441.68V456.267H1431.53V390.08H1384.36V456.267H1374.21V381.074Z" stroke="#292929" stroke-width="2" mask="url(#path-4-outside-1_513_6087)"/>
<path d="M1539.7 418.67C1539.7 419.528 1539.56 420.672 1539.56 421.815H1476.66C1477.8 437.54 1489.81 447.976 1506.25 447.976C1515.4 447.976 1523.55 444.688 1529.27 438.112L1534.99 444.688C1528.27 452.693 1517.83 456.982 1505.97 456.982C1482.52 456.982 1466.51 440.971 1466.51 418.67C1466.51 396.37 1482.09 380.502 1503.25 380.502C1524.41 380.502 1539.7 396.084 1539.7 418.67ZM1503.25 389.222C1488.67 389.222 1477.95 399.515 1476.66 414.239H1529.98C1528.7 399.515 1517.97 389.222 1503.25 389.222Z" stroke="#292929" stroke-width="2" mask="url(#path-4-outside-1_513_6087)"/>
<path d="M1631.62 447.404H1643.78V475.137H1634.2V456.267H1565.44V381.074H1575.59V447.404H1621.47V381.074H1631.62V447.404Z" stroke="#292929" stroke-width="2" mask="url(#path-4-outside-1_513_6087)"/>
<path d="M1719.32 381.074V390.08H1690.87V456.267H1680.72V390.08H1652.27V381.074H1719.32Z" stroke="#292929" stroke-width="2" mask="url(#path-4-outside-1_513_6087)"/>
<path d="M1799.67 418.67C1799.67 419.528 1799.53 420.672 1799.53 421.815H1736.63C1737.77 437.54 1749.78 447.976 1766.22 447.976C1775.37 447.976 1783.52 444.688 1789.24 438.112L1794.96 444.688C1788.24 452.693 1777.8 456.982 1765.94 456.982C1742.49 456.982 1726.48 440.971 1726.48 418.67C1726.48 396.37 1742.06 380.502 1763.22 380.502C1784.38 380.502 1799.67 396.084 1799.67 418.67ZM1763.22 389.222C1748.64 389.222 1737.92 399.515 1736.63 414.239H1789.95C1788.67 399.515 1777.94 389.222 1763.22 389.222Z" stroke="#292929" stroke-width="2" mask="url(#path-4-outside-1_513_6087)"/>
<path d="M1881.92 456.267H1870.34L1846.47 424.817L1822.46 456.267H1811.02L1840.75 417.67L1812.45 381.074H1823.88L1846.47 410.522L1869.06 381.074H1880.21L1851.9 417.67L1881.92 456.267Z" stroke="#292929" stroke-width="2" mask="url(#path-4-outside-1_513_6087)"/>
<path d="M1901.83 456.267V381.074H1911.98V414.382H1959.29V381.074H1969.44V456.267H1959.29V423.102H1911.98V456.267H1901.83Z" stroke="#292929" stroke-width="2" mask="url(#path-4-outside-1_513_6087)"/>
<path d="M2001.56 456.267V381.074H2011.71V440.828L2061.88 381.074H2070.89V456.267H2060.74V396.513L2010.71 456.267H2001.56Z" stroke="#292929" stroke-width="2" mask="url(#path-4-outside-1_513_6087)"/>
<path d="M2158.28 456.267L2130.55 422.816H2113.4V456.267H2103.25V381.074H2113.4V414.096H2130.69L2157.14 381.074H2168.15L2138.55 417.527L2170.29 456.267H2158.28Z" stroke="#292929" stroke-width="2" mask="url(#path-4-outside-1_513_6087)"/>
<path d="M2189.58 456.267V381.074H2199.73V440.828L2249.9 381.074H2258.91V456.267H2248.76V396.513L2198.73 456.267H2189.58Z" stroke="#292929" stroke-width="2" mask="url(#path-4-outside-1_513_6087)"/>
<defs>
<clipPath id="clip0_513_6087">
<rect width="540" height="540" fill="white"/>
</clipPath>
</defs>
</svg>
