<svg width="24" height="24" viewBox="0 0 24 24" fill="none" xmlns="http://www.w3.org/2000/svg">
<path d="M18.1668 14.3798C17.4951 14.2353 16.9637 14.5471 16.4932 14.8195C16.0114 15.1001 15.0951 15.8434 14.57 15.6532C11.8811 14.5461 9.35213 12.1926 8.25739 9.49292C8.06444 8.95653 8.80424 8.03446 9.08283 7.54692C9.35316 7.07498 9.65858 6.53858 9.51928 5.86185C9.3934 5.25372 7.76522 3.18194 7.18947 2.61539C6.80977 2.24116 6.42078 2.03533 6.02147 2.00207C4.5202 1.93762 2.84352 3.94079 2.54945 4.42002C1.81274 5.44187 1.81687 6.80158 2.56183 8.45027C4.35717 12.8787 11.1475 19.5618 15.5925 21.4247C16.4128 21.8082 17.1629 22.0005 17.8366 22.0005C18.496 22.0005 19.0831 21.8166 19.5876 21.4517C19.9684 21.2323 22.0536 19.4724 21.9989 17.9308C21.9659 17.5378 21.7606 17.1449 21.3912 16.7644C20.8289 16.1833 18.7704 14.5066 18.1668 14.3798Z" fill="#002120"/>
</svg>
