<svg width="24" height="24" viewBox="0 0 24 24" fill="none" xmlns="http://www.w3.org/2000/svg">
<g id="Icons/Iconly Black/Bold/Profile">
<g id="Profile">
<path id="Profile_2" fill-rule="evenodd" clip-rule="evenodd" d="M17.2539 7.40036C17.2539 10.3829 14.9028 12.8007 12.0026 12.8007C9.10241 12.8007 6.75131 10.3829 6.75131 7.40036C6.75131 4.41782 9.10241 2 12.0026 2C14.9028 2 17.2539 4.41782 17.2539 7.40036ZM4.01079 18.5021C4.22878 15.9939 7.7223 14 12 14C16.2588 14 19.7403 15.9763 19.9861 18.4689C19.996 18.5616 20.0006 18.6548 19.9999 18.7479L20 18.75H19.9999C19.997 19.1237 19.9093 19.4969 19.7368 19.8381C19.2697 20.7278 18.2229 21.3149 16.4926 21.6174C15.7216 21.7729 14.9412 21.874 14.1568 21.9199C13.4301 22 12.7034 22 11.968 22H10.6444C10.3675 21.9644 10.0994 21.9466 9.83981 21.9466C9.05538 21.9063 8.27477 21.8082 7.50397 21.653C5.83428 21.3327 4.74422 20.7633 4.27705 19.8737C4.09671 19.529 4.00163 19.144 4.00021 18.7527C4.00021 18.7518 4.0002 18.7509 4.00019 18.75H4L4.00015 18.7448C3.99964 18.6636 4.00321 18.5826 4.01079 18.5021Z" fill="#002120"/>
</g>
</g>
</svg>
